<svg xmlns="http://www.w3.org/2000/svg" xmlns:xlink="http://www.w3.org/1999/xlink" version="1.1" data-diagram-type="SEQUENCE" style="width:1039px;height:512px;background:#FFFFFF;" width="1039px" height="512px" viewBox="0 0 1039 512" zoomAndPan="magnify" preserveAspectRatio="none" contentStyleType="text/css"><?plantuml 1.2026.7beta11?><defs/><g font-family="sans-serif" lengthAdjust="spacing"><g><title>User</title><rect x="25.455" y="86.297" width="8" height="338.461" fill="#000" fill-opacity="0"/><line x1="28.955" y1="86.297" x2="28.955" y2="424.758" style="stroke:#181818;stroke-width:0.5;stroke-dasharray:5,5;"/></g><g><title>Client</title><rect x="181.689" y="86.297" width="8" height="338.461" fill="#000" fill-opacity="0"/><line x1="185.189" y1="86.297" x2="185.189" y2="424.758" style="stroke:#181818;stroke-width:0.5;stroke-dasharray:5,5;"/></g><g><title>Auth Route</title><rect x="402.67" y="86.297" width="8" height="338.461" fill="#000" fill-opacity="0"/><line x1="406.17" y1="86.297" x2="406.17" y2="424.758" style="stroke:#181818;stroke-width:0.5;stroke-dasharray:5,5;"/></g><g><title>Auth Controller</title><rect x="528.417" y="86.297" width="8" height="338.461" fill="#000" fill-opacity="0"/><line x1="531.917" y1="86.297" x2="531.917" y2="424.758" style="stroke:#181818;stroke-width:0.5;stroke-dasharray:5,5;"/></g><g><title>Auth Service</title><rect x="683.972" y="86.297" width="8" height="338.461" fill="#000" fill-opacity="0"/><line x1="687.472" y1="86.297" x2="687.472" y2="424.758" style="stroke:#181818;stroke-width:0.5;stroke-dasharray:5,5;"/></g><g><title>Auth Model</title><rect x="842.764" y="86.297" width="8" height="338.461" fill="#000" fill-opacity="0"/><line x1="846.264" y1="86.297" x2="846.264" y2="424.758" style="stroke:#181818;stroke-width:0.5;stroke-dasharray:5,5;"/></g><g><title>PostgreSQL</title><rect x="981.606" y="86.297" width="8" height="338.461" fill="#000" fill-opacity="0"/><line x1="985.106" y1="86.297" x2="985.106" y2="424.758" style="stroke:#181818;stroke-width:0.5;stroke-dasharray:5,5;"/></g><text x="10" y="82.995" fill="#000" font-size="14" textLength="31.91">User</text><ellipse cx="28.955" cy="18.5" rx="8" ry="8" fill="#E2E2F0" style="stroke:#181818;stroke-width:0.5;"/><path d="M28.955,26.5 L28.955,53.5 M15.955,34.5 L41.955,34.5 M28.955,53.5 L15.955,68.5 M28.955,53.5 L41.955,68.5" style="stroke:#181818;stroke-width:0.5;" fill="none"/><rect x="157.924" y="55" width="54.53" height="30.297" fill="#E2E2F0" style="stroke:#181818;stroke-width:0.5;" rx="2.5" ry="2.5"/><text x="164.924" y="74.995" fill="#000" font-size="14" textLength="40.53">Client</text><rect x="359.904" y="55" width="92.531" height="30.297" fill="#E2E2F0" style="stroke:#181818;stroke-width:0.5;" rx="2.5" ry="2.5"/><text x="366.904" y="74.995" fill="#000" font-size="14" textLength="78.531">Auth Route</text><rect x="471.699" y="55" width="120.436" height="30.297" fill="#E2E2F0" style="stroke:#181818;stroke-width:0.5;" rx="2.5" ry="2.5"/><text x="478.699" y="74.995" fill="#000" font-size="14" textLength="106.436">Auth Controller</text><rect x="635.97" y="55" width="103.004" height="30.297" fill="#E2E2F0" style="stroke:#181818;stroke-width:0.5;" rx="2.5" ry="2.5"/><text x="642.97" y="74.995" fill="#000" font-size="14" textLength="89.004">Auth Service</text><rect x="799.616" y="55" width="93.297" height="30.297" fill="#E2E2F0" style="stroke:#181818;stroke-width:0.5;" rx="2.5" ry="2.5"/><text x="806.616" y="74.995" fill="#000" font-size="14" textLength="79.297">Auth Model</text><text x="941.729" y="82.995" fill="#000" font-size="14" textLength="80.753">PostgreSQL</text><path d="M967.106,34 C967.106,24 985.106,24 985.106,24 C985.106,24 1003.106,24 1003.106,34 L1003.106,60 C1003.106,70 985.106,70 985.106,70 C985.106,70 967.106,70 967.106,60 L967.106,34" style="stroke:#181818;stroke-width:0.5;" fill="#E2E2F0"/><path d="M967.106,34 C967.106,44 985.106,44 985.106,44 C985.106,44 1003.106,44 1003.106,34" style="stroke:#181818;stroke-width:0.5;" fill="none"/><text x="10" y="437.753" fill="#000" font-size="14" textLength="31.91">User</text><ellipse cx="28.955" cy="449.555" rx="8" ry="8" fill="#E2E2F0" style="stroke:#181818;stroke-width:0.5;"/><path d="M28.955,457.555 L28.955,484.555 M15.955,465.555 L41.955,465.555 M28.955,484.555 L15.955,499.555 M28.955,484.555 L41.955,499.555" style="stroke:#181818;stroke-width:0.5;" fill="none"/><rect x="157.924" y="424.758" width="54.53" height="30.297" fill="#E2E2F0" style="stroke:#181818;stroke-width:0.5;" rx="2.5" ry="2.5"/><text x="164.924" y="444.753" fill="#000" font-size="14" textLength="40.53">Client</text><rect x="359.904" y="424.758" width="92.531" height="30.297" fill="#E2E2F0" style="stroke:#181818;stroke-width:0.5;" rx="2.5" ry="2.5"/><text x="366.904" y="444.753" fill="#000" font-size="14" textLength="78.531">Auth Route</text><rect x="471.699" y="424.758" width="120.436" height="30.297" fill="#E2E2F0" style="stroke:#181818;stroke-width:0.5;" rx="2.5" ry="2.5"/><text x="478.699" y="444.753" fill="#000" font-size="14" textLength="106.436">Auth Controller</text><rect x="635.97" y="424.758" width="103.004" height="30.297" fill="#E2E2F0" style="stroke:#181818;stroke-width:0.5;" rx="2.5" ry="2.5"/><text x="642.97" y="444.753" fill="#000" font-size="14" textLength="89.004">Auth Service</text><rect x="799.616" y="424.758" width="93.297" height="30.297" fill="#E2E2F0" style="stroke:#181818;stroke-width:0.5;" rx="2.5" ry="2.5"/><text x="806.616" y="444.753" fill="#000" font-size="14" textLength="79.297">Auth Model</text><text x="941.729" y="437.753" fill="#000" font-size="14" textLength="80.753">PostgreSQL</text><path d="M967.106,451.055 C967.106,441.055 985.106,441.055 985.106,441.055 C985.106,441.055 1003.106,441.055 1003.106,451.055 L1003.106,477.055 C1003.106,487.055 985.106,487.055 985.106,487.055 C985.106,487.055 967.106,487.055 967.106,477.055 L967.106,451.055" style="stroke:#181818;stroke-width:0.5;" fill="#E2E2F0"/><path d="M967.106,451.055 C967.106,461.055 985.106,461.055 985.106,461.055 C985.106,461.055 1003.106,461.055 1003.106,451.055" style="stroke:#181818;stroke-width:0.5;" fill="none"/><polygon points="173.189,111.43,183.189,115.43,173.189,119.43,177.189,115.43" fill="#181818" style="stroke:#181818;stroke-width:1;stroke-linejoin:miter;stroke-miterlimit:10;"/><line x1="28.955" y1="115.43" x2="179.189" y2="115.43" style="stroke:#181818;stroke-width:1;"/><text x="35.955" y="110.364" fill="#000" font-size="13" textLength="132.234">inserisce credenziali</text><polygon points="394.17,140.563,404.17,144.563,394.17,148.563,398.17,144.563" fill="#181818" style="stroke:#181818;stroke-width:1;stroke-linejoin:miter;stroke-miterlimit:10;"/><line x1="185.189" y1="144.563" x2="400.17" y2="144.563" style="stroke:#181818;stroke-width:1;"/><text x="192.189" y="139.497" fill="#000" font-size="13" textLength="196.98">richiesta di registrazione/login</text><polygon points="519.917,169.695,529.917,173.695,519.917,177.695,523.917,173.695" fill="#181818" style="stroke:#181818;stroke-width:1;stroke-linejoin:miter;stroke-miterlimit:10;"/><line x1="406.17" y1="173.695" x2="525.917" y2="173.695" style="stroke:#181818;stroke-width:1;"/><text x="413.17" y="168.629" fill="#000" font-size="13" textLength="101.747">inoltra richiesta</text><polygon points="675.472,198.828,685.472,202.828,675.472,206.828,679.472,202.828" fill="#181818" style="stroke:#181818;stroke-width:1;stroke-linejoin:miter;stroke-miterlimit:10;"/><line x1="531.917" y1="202.828" x2="681.472" y2="202.828" style="stroke:#181818;stroke-width:1;"/><text x="538.917" y="197.762" fill="#000" font-size="13" textLength="120.155">esegue caso d'uso</text><polygon points="834.264,227.961,844.264,231.961,834.264,235.961,838.264,231.961" fill="#181818" style="stroke:#181818;stroke-width:1;stroke-linejoin:miter;stroke-miterlimit:10;"/><line x1="687.472" y1="231.961" x2="840.264" y2="231.961" style="stroke:#181818;stroke-width:1;"/><text x="694.472" y="226.895" fill="#000" font-size="13" textLength="134.792">legge o crea identità</text><polygon points="973.106,257.094,983.106,261.094,973.106,265.094,977.106,261.094" fill="#181818" style="stroke:#181818;stroke-width:1;stroke-linejoin:miter;stroke-miterlimit:10;"/><line x1="846.264" y1="261.094" x2="979.106" y2="261.094" style="stroke:#181818;stroke-width:1;"/><text x="853.264" y="256.028" fill="#000" font-size="13" textLength="114.842">query persistente</text><polygon points="857.264,286.227,847.264,290.227,857.264,294.227,853.264,290.227" fill="#181818" style="stroke:#181818;stroke-width:1;stroke-linejoin:miter;stroke-miterlimit:10;"/><line x1="851.264" y1="290.227" x2="984.106" y2="290.227" style="stroke:#181818;stroke-width:1;stroke-dasharray:2,2;"/><text x="863.264" y="285.161" fill="#000" font-size="13" textLength="53.695">risultato</text><polygon points="698.472,315.359,688.472,319.359,698.472,323.359,694.472,319.359" fill="#181818" style="stroke:#181818;stroke-width:1;stroke-linejoin:miter;stroke-miterlimit:10;"/><line x1="692.472" y1="319.359" x2="845.264" y2="319.359" style="stroke:#181818;stroke-width:1;stroke-dasharray:2,2;"/><text x="704.472" y="314.293" fill="#000" font-size="13" textLength="88.842">record utente</text><polygon points="542.917,344.492,532.917,348.492,542.917,352.492,538.917,348.492" fill="#181818" style="stroke:#181818;stroke-width:1;stroke-linejoin:miter;stroke-miterlimit:10;"/><line x1="536.917" y1="348.492" x2="686.472" y2="348.492" style="stroke:#181818;stroke-width:1;stroke-dasharray:2,2;"/><text x="548.917" y="343.426" fill="#000" font-size="13" textLength="131.555">esito autenticazione</text><polygon points="196.189,373.625,186.189,377.625,196.189,381.625,192.189,377.625" fill="#181818" style="stroke:#181818;stroke-width:1;stroke-linejoin:miter;stroke-miterlimit:10;"/><line x1="190.189" y1="377.625" x2="530.917" y2="377.625" style="stroke:#181818;stroke-width:1;stroke-dasharray:2,2;"/><text x="202.189" y="372.559" fill="#000" font-size="13" textLength="132.615">risposta HTTP sicura</text><polygon points="39.955,402.758,29.955,406.758,39.955,410.758,35.955,406.758" fill="#181818" style="stroke:#181818;stroke-width:1;stroke-linejoin:miter;stroke-miterlimit:10;"/><line x1="33.955" y1="406.758" x2="184.189" y2="406.758" style="stroke:#181818;stroke-width:1;stroke-dasharray:2,2;"/><text x="45.955" y="401.692" fill="#000" font-size="13" textLength="121.215">utente autenticato</text><?plantuml-src RP51JWCn34NtEONL3QkAVHT8j5sm0AdGSW2JiQQMel7WE4ZqDDo5Y-5cfjCMTUV9V_dvtuFHHE4zauOUrJXoZvt1R9MOEfi1PXZ6Q_cns1xUf1XLf4utY9Lqff8IwU0qVTvWjwHV70U_SRv1lKX3gJ9r2WqQVc0cc6qaMwkqVNskydePmh4Mp1_61h00xlo4SoI8IWrr1yR4OPGTh3sSKuvxfcm83ODIozaK3omTtITfkGi3UBIUAbLxIGwUhuSBsU6nbfEKgIsU0hD0SrUoX9FcM6tcKAAs9P1ZLWJskCRs-nC6sRdrqg7FGleDFMdsa8vGyEFvXOltBSdGv7JnAeXI56sW35Ud4F-RKMOJm8fn75PnLUvoo_vYByVbFUrs6yWSY-AqP0VhRrcCRvvDJVu0?></g></svg>